<svg width="512" height="512" viewBox="0 0 512 512" xmlns="http://www.w3.org/2000/svg">
  <defs>
    <!-- MASTERPIECE GOLD GRADIENT -->
    <linearGradient id="masterpieceGold" x1="0%" y1="0%" x2="0%" y2="100%">
      <stop offset="0%" style="stop-color:#FFFFFF;stop-opacity:1" />
      <stop offset="25%" style="stop-color:#F9E2AF;stop-opacity:1" />
      <stop offset="55%" style="stop-color:#D4AF37;stop-opacity:1" />
      <stop offset="100%" style="stop-color:#8A6D3B;stop-opacity:1" />
    </linearGradient>

    <!-- BRUSHED METAL FILTER (Website DNA) -->
    <filter id="brushedMetal" x="-20%" y="-20%" width="140%" height="140%">
      <feTurbulence type="fractalNoise" baseFrequency="0.6" numOctaves="3" stitchTiles="stitch" />
      <feColorMatrix type="saturate" values="0" />
      <feComponentTransfer>
        <feFuncR type="linear" slope="1.5" intercept="-0.3" />
        <feFuncG type="linear" slope="1.5" intercept="-0.3" />
        <feFuncB type="linear" slope="1.5" intercept="-0.3" />
      </feComponentTransfer>
      <feComposite operator="in" in2="SourceGraphic" />
      <feBlend mode="multiply" in2="SourceGraphic" />
      <feDropShadow dx="0" dy="4" stdDeviation="6" flood-color="#000000" flood-opacity="0.8" />
    </filter>

    <filter id="silverGlow">
      <feGaussianBlur stdDeviation="1.5" result="blur" />
      <feComposite in="SourceGraphic" in2="blur" operator="over" />
    </filter>
  </defs>

  <rect width="512" height="512" fill="#010101" />

  <!-- DIVINE SILVER BLUEPRINT (30% Opacity) -->
  <g stroke="#C0C0C0" fill="none" opacity="0.3" filter="url(#silverGlow)">
    <circle cx="256" cy="256" r="245" stroke-width="1.2" />
    <circle cx="256" cy="256" r="180" stroke-width="1.0" />
    <circle cx="256" cy="256" r="100" stroke-width="1.0" />
    <!-- Shiva/Shakti -->
    <polygon points="256,40 435,360 77,360" stroke-width="1.2" />
    <polygon points="256,472 77,152 435,152" stroke-width="1.2" />
    <!-- Filaments -->
    <line x1="256" y1="10" x2="256" y2="502" stroke-width="0.8" />
    <line x1="10" y1="256" x2="502" y2="256" stroke-width="0.8" />
    <!-- Lotus (8 petals) -->
    <ellipse cx="256" cy="180" rx="15" ry="50" transform="rotate(0 256 256)" stroke-width="0.8" />
    <ellipse cx="256" cy="180" rx="15" ry="50" transform="rotate(45 256 256)" stroke-width="0.8" />
    <ellipse cx="256" cy="180" rx="15" ry="50" transform="rotate(90 256 256)" stroke-width="0.8" />
    <ellipse cx="256" cy="180" rx="15" ry="50" transform="rotate(135 256 256)" stroke-width="0.8" />
    <ellipse cx="256" cy="180" rx="15" ry="50" transform="rotate(180 256 256)" stroke-width="0.8" />
    <ellipse cx="256" cy="180" rx="15" ry="50" transform="rotate(225 256 256)" stroke-width="0.8" />
    <ellipse cx="256" cy="180" rx="15" ry="50" transform="rotate(270 256 256)" stroke-width="0.8" />
    <ellipse cx="256" cy="180" rx="15" ry="50" transform="rotate(315 256 256)" stroke-width="0.8" />
  </g>

  <!-- MASTERPIECE GOLD "क" (Jewel center) -->
  <text x="50%" y="54%" dominant-baseline="middle" text-anchor="middle" 
        style="font-family: 'Gotu', sans-serif; font-weight: 400; filter: url(#brushedMetal);" 
        font-size="285" fill="url(#masterpieceGold)">
    क
  </text>
  
  <!-- THE WHITE BINDU -->
  <circle cx="256" cy="256" r="7" fill="#FFFFFF" opacity="0.9" style="filter: drop-shadow(0 0 10px #D4AF37)" />
</svg>
